<svg xmlns="http://www.w3.org/2000/svg" xmlns:xlink="http://www.w3.org/1999/xlink" width="500" zoomAndPan="magnify" viewBox="0 0 375 374.999991" height="500" preserveAspectRatio="xMidYMid meet" version="1.0"><defs><clipPath id="90a3c294c6"><path d="M 5.675781 10.234375 L 369.652344 10.234375 L 369.652344 374 L 5.675781 374 Z M 5.675781 10.234375 " clip-rule="nonzero"/></clipPath><clipPath id="21f370a26e"><path d="M 0 0 L 374.199219 0 L 374.199219 374.199219 L 0 374.199219 Z M 0 0 " clip-rule="nonzero"/></clipPath><clipPath id="77df9235e9"><path d="M 28.628906 28.542969 L 346.542969 28.542969 L 346.542969 346.457031 L 28.628906 346.457031 Z M 28.628906 28.542969 " clip-rule="nonzero"/></clipPath><clipPath id="af1a712a18"><path d="M 187.585938 28.542969 C 99.796875 28.542969 28.628906 99.710938 28.628906 187.5 C 28.628906 275.289062 99.796875 346.457031 187.585938 346.457031 C 275.378906 346.457031 346.542969 275.289062 346.542969 187.5 C 346.542969 99.710938 275.378906 28.542969 187.585938 28.542969 Z M 187.585938 28.542969 " clip-rule="nonzero"/></clipPath><clipPath id="6c61d84982"><path d="M 41.164062 46 L 333.570312 46 L 333.570312 338 L 41.164062 338 Z M 41.164062 46 " clip-rule="nonzero"/></clipPath><clipPath id="6c61ee16cc"><path d="M 150.707031 132.863281 L 224.289062 132.863281 L 224.289062 234.121094 L 150.707031 234.121094 Z M 150.707031 132.863281 " clip-rule="nonzero"/></clipPath><clipPath id="0afd6ab2bb"><path d="M 164 130.566406 L 220 130.566406 L 220 245 L 164 245 Z M 164 130.566406 " clip-rule="nonzero"/></clipPath></defs><g clip-path="url(#90a3c294c6)"><path fill="#cde2d1" d="M 369.300781 192.046875 C 369.300781 195.023438 369.230469 197.996094 369.082031 200.96875 C 368.9375 203.9375 368.71875 206.90625 368.425781 209.867188 C 368.136719 212.828125 367.769531 215.78125 367.335938 218.722656 C 366.898438 221.667969 366.390625 224.597656 365.808594 227.515625 C 365.226562 230.433594 364.578125 233.335938 363.851562 236.222656 C 363.128906 239.109375 362.335938 241.976562 361.472656 244.824219 C 360.609375 247.671875 359.675781 250.496094 358.675781 253.296875 C 357.671875 256.097656 356.601562 258.875 355.460938 261.621094 C 354.324219 264.371094 353.117188 267.089844 351.847656 269.78125 C 350.574219 272.472656 349.238281 275.128906 347.832031 277.75 C 346.429688 280.375 344.964844 282.964844 343.433594 285.515625 C 341.90625 288.070312 340.3125 290.582031 338.660156 293.054688 C 337.007812 295.53125 335.296875 297.960938 333.523438 300.351562 C 331.75 302.742188 329.921875 305.085938 328.03125 307.386719 C 326.144531 309.6875 324.203125 311.9375 322.203125 314.144531 C 320.207031 316.347656 318.152344 318.503906 316.050781 320.605469 C 313.945312 322.710938 311.792969 324.761719 309.585938 326.761719 C 307.382812 328.757812 305.128906 330.703125 302.828125 332.589844 C 300.53125 334.476562 298.183594 336.308594 295.796875 338.078125 C 293.40625 339.851562 290.972656 341.566406 288.5 343.21875 C 286.023438 344.871094 283.511719 346.460938 280.960938 347.992188 C 278.40625 349.523438 275.820312 350.988281 273.195312 352.390625 C 270.570312 353.792969 267.914062 355.128906 265.222656 356.402344 C 262.535156 357.675781 259.816406 358.878906 257.066406 360.019531 C 254.316406 361.15625 251.542969 362.226562 248.738281 363.230469 C 245.9375 364.234375 243.113281 365.167969 240.265625 366.03125 C 237.417969 366.894531 234.550781 367.6875 231.667969 368.410156 C 228.78125 369.132812 225.878906 369.785156 222.960938 370.367188 C 220.039062 370.945312 217.109375 371.453125 214.167969 371.890625 C 211.222656 372.328125 208.269531 372.691406 205.308594 372.984375 C 202.347656 373.273438 199.382812 373.492188 196.410156 373.640625 C 193.4375 373.785156 190.464844 373.859375 187.488281 373.859375 C 184.515625 373.859375 181.539062 373.785156 178.566406 373.640625 C 175.597656 373.492188 172.628906 373.273438 169.667969 372.984375 C 166.707031 372.691406 163.753906 372.328125 160.8125 371.890625 C 157.867188 371.453125 154.9375 370.945312 152.019531 370.367188 C 149.101562 369.785156 146.199219 369.132812 143.3125 368.410156 C 140.425781 367.6875 137.558594 366.894531 134.710938 366.03125 C 131.863281 365.167969 129.039062 364.234375 126.238281 363.230469 C 123.4375 362.226562 120.660156 361.15625 117.914062 360.019531 C 115.164062 358.878906 112.445312 357.675781 109.753906 356.402344 C 107.0625 355.128906 104.40625 353.792969 101.785156 352.390625 C 99.160156 350.988281 96.570312 349.523438 94.019531 347.992188 C 91.464844 346.460938 88.953125 344.871094 86.480469 343.21875 C 84.003906 341.566406 81.574219 339.851562 79.183594 338.078125 C 76.792969 336.308594 74.449219 334.476562 72.148438 332.589844 C 69.847656 330.703125 67.597656 328.757812 65.390625 326.761719 C 63.1875 324.761719 61.03125 322.710938 58.929688 320.605469 C 56.824219 318.503906 54.773438 316.347656 52.773438 314.144531 C 50.777344 311.9375 48.832031 309.6875 46.945312 307.386719 C 45.058594 305.085938 43.226562 302.742188 41.457031 300.351562 C 39.683594 297.960938 37.96875 295.53125 36.316406 293.054688 C 34.664062 290.582031 33.074219 288.070312 31.542969 285.515625 C 30.011719 282.964844 28.546875 280.375 27.144531 277.75 C 25.742188 275.128906 24.40625 272.472656 23.132812 269.78125 C 21.859375 267.089844 20.65625 264.371094 19.515625 261.621094 C 18.378906 258.875 17.308594 256.097656 16.304688 253.296875 C 15.300781 250.496094 14.367188 247.671875 13.503906 244.824219 C 12.640625 241.976562 11.847656 239.109375 11.125 236.222656 C 10.402344 233.335938 9.75 230.433594 9.167969 227.515625 C 8.589844 224.597656 8.082031 221.667969 7.644531 218.722656 C 7.207031 215.78125 6.84375 212.828125 6.550781 209.867188 C 6.261719 206.90625 6.042969 203.9375 5.894531 200.96875 C 5.75 197.996094 5.675781 195.023438 5.675781 192.046875 C 5.675781 189.070312 5.75 186.097656 5.894531 183.125 C 6.042969 180.152344 6.261719 177.1875 6.550781 174.226562 C 6.84375 171.265625 7.207031 168.3125 7.644531 165.367188 C 8.082031 162.425781 8.589844 159.496094 9.167969 156.574219 C 9.75 153.65625 10.402344 150.753906 11.125 147.867188 C 11.847656 144.984375 12.640625 142.117188 13.503906 139.269531 C 14.367188 136.421875 15.300781 133.597656 16.304688 130.796875 C 17.308594 127.992188 18.378906 125.21875 19.515625 122.46875 C 20.65625 119.71875 21.859375 117 23.132812 114.3125 C 24.40625 111.621094 25.742188 108.964844 27.144531 106.339844 C 28.546875 103.714844 30.011719 101.128906 31.542969 98.574219 C 33.074219 96.023438 34.664062 93.511719 36.316406 91.035156 C 37.96875 88.5625 39.683594 86.128906 41.457031 83.738281 C 43.226562 81.351562 45.058594 79.003906 46.945312 76.707031 C 48.832031 74.40625 50.777344 72.152344 52.773438 69.949219 C 54.773438 67.742188 56.824219 65.589844 58.929688 63.484375 C 61.03125 61.382812 63.1875 59.328125 65.390625 57.332031 C 67.597656 55.332031 69.847656 53.390625 72.148438 51.503906 C 74.449219 49.613281 76.792969 47.785156 79.183594 46.011719 C 81.574219 44.238281 84.003906 42.527344 86.480469 40.875 C 88.953125 39.222656 91.464844 37.628906 94.019531 36.101562 C 96.570312 34.570312 99.160156 33.105469 101.785156 31.703125 C 104.40625 30.296875 107.0625 28.960938 109.753906 27.6875 C 112.445312 26.417969 115.164062 25.210938 117.914062 24.074219 C 120.660156 22.933594 123.4375 21.863281 126.238281 20.859375 C 129.039062 19.859375 131.863281 18.925781 134.710938 18.0625 C 137.558594 17.199219 140.425781 16.40625 143.3125 15.683594 C 146.199219 14.957031 149.101562 14.308594 152.019531 13.726562 C 154.9375 13.144531 157.867188 12.636719 160.8125 12.199219 C 163.753906 11.765625 166.707031 11.398438 169.667969 11.109375 C 172.628906 10.816406 175.597656 10.597656 178.566406 10.453125 C 181.539062 10.304688 184.515625 10.234375 187.488281 10.234375 C 190.464844 10.234375 193.4375 10.304688 196.410156 10.453125 C 199.382812 10.597656 202.347656 10.816406 205.308594 11.109375 C 208.269531 11.398438 211.222656 11.765625 214.167969 12.199219 C 217.109375 12.636719 220.039062 13.144531 222.960938 13.726562 C 225.878906 14.308594 228.78125 14.957031 231.667969 15.683594 C 234.550781 16.40625 237.417969 17.199219 240.265625 18.0625 C 243.113281 18.925781 245.9375 19.859375 248.738281 20.859375 C 251.542969 21.863281 254.316406 22.933594 257.066406 24.074219 C 259.816406 25.210938 262.535156 26.417969 265.222656 27.6875 C 267.914062 28.960938 270.570312 30.296875 273.195312 31.703125 C 275.820312 33.105469 278.40625 34.570312 280.960938 36.101562 C 283.511719 37.628906 286.023438 39.222656 288.5 40.875 C 290.972656 42.527344 293.40625 44.238281 295.796875 46.011719 C 298.183594 47.785156 300.53125 49.613281 302.828125 51.503906 C 305.128906 53.390625 307.382812 55.332031 309.585938 57.332031 C 311.792969 59.328125 313.945312 61.382812 316.050781 63.484375 C 318.152344 65.589844 320.207031 67.742188 322.203125 69.949219 C 324.203125 72.152344 326.144531 74.40625 328.03125 76.707031 C 329.921875 79.003906 331.75 81.351562 333.523438 83.738281 C 335.296875 86.128906 337.007812 88.5625 338.660156 91.035156 C 340.3125 93.511719 341.90625 96.023438 343.433594 98.574219 C 344.964844 101.128906 346.429688 103.714844 347.832031 106.339844 C 349.238281 108.964844 350.574219 111.621094 351.847656 114.3125 C 353.117188 117 354.324219 119.71875 355.460938 122.46875 C 356.601562 125.21875 357.671875 127.992188 358.675781 130.796875 C 359.675781 133.597656 360.609375 136.421875 361.472656 139.269531 C 362.335938 142.117188 363.128906 144.984375 363.851562 147.867188 C 364.578125 150.753906 365.226562 153.65625 365.808594 156.574219 C 366.390625 159.496094 366.898438 162.425781 367.335938 165.367188 C 367.769531 168.3125 368.136719 171.265625 368.425781 174.226562 C 368.71875 177.1875 368.9375 180.152344 369.082031 183.125 C 369.230469 186.097656 369.300781 189.070312 369.300781 192.046875 Z M 369.300781 192.046875 " fill-opacity="1" fill-rule="nonzero"/></g><g clip-path="url(#21f370a26e)"><path fill="#222e50" d="M 187.5 375 C 83.910156 375 0 290.507812 0 187.5 C 0 84.492188 83.910156 0 187.5 0 C 291.089844 0 375 83.910156 375 187.5 C 375 291.089844 290.507812 375 187.5 375 Z M 187.5 11.574219 C 90.277344 11.574219 11.574219 90.277344 11.574219 187.5 C 11.574219 284.722656 90.277344 363.425781 187.5 363.425781 C 284.722656 363.425781 363.425781 284.722656 363.425781 187.5 C 363.425781 90.277344 284.144531 11.574219 187.5 11.574219 Z M 187.5 11.574219 " fill-opacity="1" fill-rule="nonzero"/></g><g clip-path="url(#77df9235e9)"><g clip-path="url(#af1a712a18)"><path fill="#29748f" d="M 28.628906 28.542969 L 346.542969 28.542969 L 346.542969 346.457031 L 28.628906 346.457031 Z M 28.628906 28.542969 " fill-opacity="1" fill-rule="nonzero"/></g></g><g clip-path="url(#6c61d84982)"><path fill="#f4a724" d="M 330.21875 179.421875 C 328.414062 175.453125 325.164062 171.480469 321.558594 167.875 C 317.949219 164.265625 313.257812 160.65625 307.84375 157.40625 C 303.152344 154.519531 297.738281 151.632812 291.605469 149.109375 C 294.132812 142.972656 295.933594 137.199219 297.019531 131.785156 C 298.460938 125.652344 299.183594 119.878906 299.183594 114.824219 C 299.183594 109.414062 298.460938 104.722656 297.019531 100.390625 C 295.574219 96.058594 293.046875 92.089844 290.160156 89.203125 C 287.273438 86.316406 283.304688 83.789062 278.976562 82.347656 C 275.367188 80.902344 270.675781 80.183594 265.621094 80.183594 C 257.683594 80.183594 249.023438 81.625 239.277344 84.875 C 236.390625 85.957031 233.503906 86.679688 230.617188 88.121094 C 228.09375 82.347656 225.207031 76.574219 222.316406 71.882812 C 223.761719 70.4375 224.84375 68.273438 224.84375 66.109375 C 224.84375 61.777344 221.597656 58.53125 217.265625 58.53125 C 215.824219 58.53125 214.378906 58.890625 213.296875 59.613281 C 212.9375 59.25 212.574219 58.890625 211.851562 58.167969 C 208.246094 54.199219 204.273438 51.3125 200.304688 49.507812 C 195.976562 47.34375 192.003906 46.261719 187.675781 46.261719 C 183.34375 46.261719 179.015625 47.34375 175.042969 49.507812 C 171.074219 51.3125 167.105469 54.558594 163.496094 58.167969 C 159.886719 61.777344 156.28125 66.46875 153.03125 71.882812 C 150.144531 76.574219 147.257812 81.988281 144.730469 88.121094 C 141.84375 87.039062 138.957031 85.957031 136.433594 84.875 C 126.328125 81.625 117.667969 80.183594 109.726562 80.183594 C 104.675781 80.183594 99.625 80.902344 95.652344 82.347656 C 91.324219 83.789062 87.714844 85.957031 84.464844 89.203125 C 81.578125 92.089844 79.054688 96.058594 77.609375 100.390625 C 76.167969 104.722656 75.445312 109.414062 75.445312 114.824219 C 72.558594 115.90625 70.394531 118.796875 70.394531 122.042969 C 70.394531 126.011719 73.28125 129.261719 77.25 129.621094 C 77.25 130.34375 77.609375 131.066406 77.609375 131.785156 C 79.054688 137.199219 80.859375 142.972656 83.023438 149.109375 C 76.886719 151.632812 71.476562 154.519531 66.785156 157.40625 C 61.371094 160.65625 57.039062 164.265625 53.070312 167.875 C 49.101562 171.480469 46.214844 175.453125 44.410156 179.421875 C 42.246094 183.75 41.164062 187.722656 41.164062 192.050781 C 41.164062 196.382812 42.246094 200.710938 44.410156 204.683594 C 46.214844 208.652344 49.460938 212.621094 53.070312 216.230469 C 56.679688 219.839844 61.371094 223.445312 66.785156 226.695312 C 71.476562 229.582031 76.886719 232.46875 83.023438 234.996094 C 80.496094 241.128906 78.691406 246.902344 77.609375 252.316406 C 76.527344 258.449219 75.804688 264.226562 75.804688 269.277344 C 75.804688 274.691406 76.527344 279.382812 77.972656 283.710938 C 78.691406 285.515625 79.414062 287.320312 80.136719 288.765625 C 79.054688 290.207031 78.332031 292.011719 78.332031 293.816406 C 78.332031 298.148438 81.578125 301.394531 85.910156 301.394531 C 87.714844 301.394531 89.519531 300.671875 90.960938 299.589844 C 92.40625 300.3125 94.210938 301.035156 95.652344 301.753906 C 99.625 303.199219 104.675781 303.921875 109.726562 303.921875 C 117.667969 303.921875 126.328125 302.476562 136.070312 299.230469 C 138.957031 298.148438 141.84375 297.425781 144.371094 295.980469 C 146.898438 302.117188 149.785156 307.527344 152.671875 312.21875 C 155.917969 317.632812 159.527344 321.964844 163.136719 325.933594 C 166.746094 329.902344 170.714844 332.789062 174.683594 334.59375 C 179.015625 336.757812 182.984375 337.84375 187.3125 337.84375 C 191.644531 337.84375 195.976562 336.757812 199.945312 334.59375 C 203.914062 332.789062 207.882812 329.542969 211.492188 325.933594 C 215.101562 322.324219 218.710938 317.632812 221.957031 312.21875 C 224.84375 307.527344 227.730469 302.117188 230.257812 295.980469 C 233.144531 297.0625 236.03125 298.148438 238.917969 299.230469 C 248.660156 302.476562 257.324219 303.921875 265.261719 303.921875 C 265.621094 303.921875 265.621094 303.921875 265.984375 303.921875 C 267.066406 306.808594 269.953125 308.972656 273.199219 308.972656 C 277.53125 308.972656 280.777344 305.726562 280.777344 301.394531 C 284.386719 299.949219 287.636719 297.785156 290.523438 295.257812 C 293.410156 292.371094 295.933594 288.402344 297.378906 284.074219 C 298.824219 279.742188 299.542969 275.050781 299.542969 269.636719 C 299.542969 264.585938 298.824219 258.8125 297.378906 252.675781 C 295.933594 247.265625 294.132812 241.492188 291.964844 235.355469 C 297.738281 232.828125 303.515625 229.941406 308.203125 227.054688 C 313.617188 223.808594 317.949219 220.199219 321.917969 216.589844 C 325.886719 212.980469 328.773438 209.011719 330.578125 205.042969 C 332.742188 200.710938 333.828125 196.742188 333.828125 192.414062 C 333.464844 187.722656 332.382812 183.390625 330.21875 179.421875 Z M 210.410156 282.988281 C 203.554688 279.382812 197.058594 275.050781 190.199219 270.359375 C 197.78125 264.945312 205.359375 259.171875 212.574219 252.675781 C 222.320312 251.957031 231.699219 250.871094 241.082031 249.429688 C 238.195312 265.308594 234.226562 279.742188 229.175781 292.371094 C 223.039062 289.484375 216.90625 286.597656 210.410156 282.988281 Z M 146.175781 292.011719 C 141.121094 279.382812 137.152344 264.945312 134.265625 249.070312 C 143.289062 250.511719 153.03125 251.59375 162.773438 252.316406 C 169.992188 258.8125 177.570312 264.585938 185.148438 270 C 178.292969 274.691406 171.796875 279.019531 164.941406 282.628906 C 158.445312 286.597656 152.308594 289.484375 146.175781 292.011719 Z M 164.941406 101.113281 C 171.796875 104.722656 178.292969 109.050781 185.148438 113.742188 C 177.570312 119.15625 169.992188 124.929688 162.773438 131.425781 C 153.03125 132.148438 143.648438 133.230469 134.265625 134.671875 C 137.152344 118.796875 141.121094 104.359375 146.175781 91.730469 C 152.308594 94.617188 158.445312 97.503906 164.941406 101.113281 Z M 229.175781 92.089844 C 234.226562 104.722656 238.195312 119.15625 241.082031 135.035156 C 231.699219 133.589844 222.320312 132.507812 212.574219 131.785156 C 205.359375 125.289062 197.78125 119.515625 190.199219 114.105469 C 197.058594 109.414062 203.554688 105.082031 210.410156 101.472656 C 216.90625 97.503906 223.039062 94.617188 229.175781 92.089844 Z M 246.136719 192.050781 C 246.136719 199.992188 245.773438 207.929688 245.414062 215.867188 C 242.886719 218.753906 240.363281 221.640625 237.476562 224.53125 C 236.03125 223.445312 234.585938 222.726562 232.785156 222.726562 C 228.453125 222.726562 225.207031 225.972656 225.207031 230.304688 C 225.207031 232.109375 225.925781 233.910156 227.007812 235.355469 C 221.957031 240.40625 216.90625 245.097656 211.851562 249.429688 C 203.914062 249.789062 195.976562 250.152344 188.035156 250.152344 C 180.097656 250.152344 172.15625 249.789062 164.21875 249.429688 C 158.445312 244.378906 152.308594 238.964844 146.898438 233.191406 C 141.121094 227.417969 135.710938 221.640625 130.65625 215.867188 C 129.9375 207.929688 129.9375 199.992188 129.9375 192.050781 C 129.9375 184.113281 130.296875 176.171875 130.65625 168.234375 C 135.710938 162.460938 141.121094 156.324219 146.898438 150.914062 C 152.671875 145.136719 158.445312 139.726562 164.21875 134.671875 C 172.15625 134.3125 180.097656 133.953125 188.035156 133.953125 C 195.976562 133.953125 203.914062 134.3125 211.851562 134.671875 C 217.628906 139.726562 223.761719 145.136719 229.175781 150.914062 C 234.949219 156.6875 240.363281 162.460938 245.414062 168.234375 C 245.773438 175.8125 246.136719 184.113281 246.136719 192.050781 Z M 248.660156 172.203125 C 254.074219 178.699219 259.488281 185.554688 264.179688 192.050781 C 259.488281 198.90625 254.074219 205.402344 248.660156 211.898438 C 249.023438 205.402344 249.023438 198.90625 249.023438 192.050781 C 249.023438 185.195312 249.023438 178.699219 248.660156 172.203125 Z M 126.6875 211.898438 C 121.273438 205.402344 115.863281 198.546875 111.171875 192.050781 C 115.863281 185.195312 121.273438 178.699219 126.6875 172.203125 C 126.328125 178.699219 126.328125 185.195312 126.328125 192.050781 C 126.328125 198.90625 126.328125 205.402344 126.6875 211.898438 Z M 230.980469 148.746094 C 226.289062 144.054688 221.234375 139.363281 216.542969 135.035156 C 225.207031 135.757812 233.503906 136.839844 241.804688 138.28125 C 243.25 146.222656 244.332031 154.882812 245.054688 163.542969 C 240.363281 158.128906 236.03125 153.4375 230.980469 148.746094 Z M 207.523438 131.066406 C 201.027344 130.703125 194.53125 130.703125 187.675781 130.703125 C 180.820312 130.703125 174.324219 131.066406 167.828125 131.425781 C 174.324219 126.011719 181.179688 120.597656 187.675781 115.90625 C 194.53125 120.238281 201.027344 125.652344 207.523438 131.066406 Z M 158.804688 134.671875 C 153.753906 139.003906 149.0625 143.695312 144.371094 148.386719 C 139.679688 153.078125 134.988281 158.128906 130.65625 162.820312 C 131.378906 154.160156 132.460938 145.859375 133.90625 137.558594 C 141.84375 136.476562 150.144531 135.394531 158.804688 134.671875 Z M 127.050781 166.789062 C 120.554688 174.007812 114.78125 181.585938 109.367188 189.164062 C 100.34375 176.171875 92.765625 162.820312 87.714844 150.191406 C 100.34375 145.136719 114.78125 141.167969 130.65625 138.28125 C 128.851562 147.664062 127.769531 157.40625 127.050781 166.789062 Z M 109.367188 194.578125 C 114.78125 202.15625 120.554688 209.734375 127.050781 216.953125 C 127.769531 226.695312 128.851562 236.078125 130.296875 245.460938 C 114.417969 242.574219 99.984375 238.601562 87.355469 233.550781 C 92.765625 220.921875 100.34375 207.929688 109.367188 194.578125 Z M 130.65625 220.921875 C 134.988281 225.972656 139.679688 230.664062 144.371094 235.355469 C 149.0625 240.046875 154.113281 244.738281 158.804688 249.070312 C 150.144531 248.347656 141.84375 247.265625 133.542969 245.820312 C 132.101562 237.882812 131.378906 229.582031 130.65625 220.921875 Z M 167.828125 253.039062 C 174.324219 253.398438 180.820312 253.398438 187.675781 253.398438 C 194.53125 253.398438 201.027344 253.039062 207.523438 252.675781 C 201.027344 258.089844 194.171875 263.503906 187.675781 268.195312 C 180.820312 263.863281 174.324219 258.449219 167.828125 253.039062 Z M 216.542969 249.070312 C 220.875 245.097656 225.207031 241.492188 229.175781 237.160156 C 230.257812 237.519531 231.339844 237.882812 232.421875 237.882812 C 236.753906 237.882812 240 234.632812 240 230.304688 C 240 228.859375 239.640625 227.777344 239.277344 226.695312 C 241.082031 224.53125 242.886719 222.726562 244.691406 220.558594 C 243.96875 229.222656 242.886719 237.519531 241.445312 245.820312 C 233.503906 247.625 225.207031 248.707031 216.542969 249.070312 Z M 248.300781 217.3125 C 254.796875 210.09375 260.570312 202.515625 265.984375 194.9375 C 275.003906 207.929688 282.582031 221.28125 287.636719 233.910156 C 275.003906 238.964844 260.570312 242.933594 244.691406 245.820312 C 246.496094 236.4375 247.578125 226.695312 248.300781 217.3125 Z M 265.984375 189.523438 C 260.570312 181.945312 254.796875 174.367188 248.300781 167.152344 C 247.578125 157.40625 246.496094 148.023438 245.054688 138.644531 C 260.929688 141.53125 275.367188 145.5 287.996094 150.550781 C 282.582031 163.183594 275.003906 176.171875 265.984375 189.523438 Z M 265.621094 83.070312 C 275.367188 83.070312 283.304688 85.59375 288.71875 91.007812 C 294.132812 96.421875 297.019531 104.359375 296.65625 114.464844 C 296.65625 123.847656 294.132812 135.035156 289.078125 147.664062 C 282.945312 145.136719 276.085938 142.972656 268.871094 140.808594 C 261.292969 138.644531 252.992188 136.839844 244.691406 135.394531 C 243.25 127.09375 241.445312 118.796875 239.277344 111.21875 C 237.113281 104 234.949219 97.144531 232.421875 91.007812 C 244.332031 85.957031 255.878906 83.070312 265.621094 83.070312 Z M 165.300781 60.335938 C 172.519531 53.117188 179.734375 49.507812 187.675781 49.507812 C 195.253906 49.507812 202.832031 53.117188 210.050781 60.335938 C 210.410156 60.695312 210.769531 61.054688 211.132812 61.777344 C 210.410156 62.859375 209.6875 64.664062 209.6875 66.109375 C 209.6875 70.4375 212.9375 73.6875 217.265625 73.6875 C 217.988281 73.6875 219.070312 73.6875 219.792969 73.324219 C 222.679688 78.015625 225.566406 83.429688 228.09375 89.203125 C 221.957031 91.730469 215.824219 94.976562 209.328125 98.585938 C 202.109375 102.554688 195.253906 106.886719 188.035156 111.9375 C 180.820312 106.886719 173.601562 102.554688 166.746094 98.585938 C 160.25 94.976562 154.113281 91.730469 147.980469 89.203125 C 152.671875 76.933594 158.804688 67.191406 165.300781 60.335938 Z M 86.992188 91.367188 C 92.40625 85.957031 99.984375 83.429688 110.089844 83.429688 C 119.832031 83.429688 131.019531 85.957031 143.648438 91.007812 C 141.121094 97.144531 138.957031 104 136.792969 111.21875 C 134.628906 118.796875 132.824219 127.09375 131.378906 135.394531 C 123.078125 136.839844 114.78125 138.644531 107.203125 140.808594 C 99.984375 142.972656 93.128906 145.136719 86.992188 147.664062 C 84.464844 141.167969 82.300781 135.035156 81.21875 129.261719 C 84.464844 128.175781 86.632812 125.289062 86.632812 122.042969 C 86.632812 118.074219 83.382812 114.824219 79.414062 114.464844 C 78.691406 104.359375 81.578125 96.78125 86.992188 91.367188 Z M 55.957031 214.425781 C 48.742188 207.207031 45.132812 199.992188 45.132812 192.050781 C 45.132812 184.472656 48.742188 176.894531 55.957031 169.675781 C 62.816406 162.820312 72.558594 157.046875 84.828125 151.632812 C 87.355469 157.769531 90.601562 164.265625 94.210938 170.761719 C 98.179688 177.617188 102.511719 184.832031 107.5625 191.691406 C 102.511719 198.90625 98.179688 205.765625 94.210938 212.621094 C 90.601562 219.117188 87.355469 225.613281 84.828125 231.746094 C 72.558594 227.054688 62.816406 220.921875 55.957031 214.425781 Z M 109.726562 301.035156 C 102.871094 301.035156 97.097656 299.949219 92.765625 297.425781 C 93.128906 296.34375 93.488281 295.257812 93.488281 294.175781 C 93.488281 289.847656 90.242188 286.597656 85.910156 286.597656 C 84.828125 286.597656 83.746094 286.960938 82.664062 287.320312 C 80.136719 282.628906 78.691406 276.855469 79.054688 269.636719 C 79.054688 259.894531 81.578125 249.070312 86.632812 236.4375 C 92.765625 238.964844 99.625 241.128906 106.839844 243.292969 C 114.417969 245.460938 122.71875 247.265625 131.019531 248.707031 C 132.460938 257.007812 134.265625 265.308594 136.433594 272.886719 C 138.597656 280.101562 140.761719 286.960938 143.289062 293.09375 C 131.019531 298.148438 119.472656 301.035156 109.726562 301.035156 Z M 210.050781 323.769531 C 202.832031 330.984375 195.613281 334.59375 187.675781 334.59375 C 180.097656 334.59375 172.519531 330.984375 165.300781 323.769531 C 158.445312 316.910156 152.671875 307.167969 147.257812 294.898438 C 153.390625 292.371094 159.527344 289.125 166.023438 285.515625 C 173.242188 281.546875 180.097656 277.214844 187.3125 272.164062 C 194.53125 277.214844 201.75 281.546875 208.605469 285.515625 C 215.101562 289.125 221.234375 292.371094 227.371094 294.898438 C 222.679688 307.167969 216.542969 316.910156 210.050781 323.769531 Z M 288.355469 292.734375 C 286.191406 294.898438 283.304688 296.703125 280.417969 298.148438 C 279.335938 295.621094 276.449219 293.457031 273.5625 293.457031 C 269.59375 293.457031 266.34375 296.703125 265.984375 300.671875 C 265.984375 300.671875 265.621094 300.671875 265.621094 300.671875 C 255.878906 300.671875 244.691406 298.148438 232.0625 293.09375 C 234.589844 286.960938 236.753906 280.101562 238.917969 272.886719 C 241.082031 265.308594 242.886719 257.007812 244.332031 248.707031 C 252.632812 247.265625 260.929688 245.460938 268.507812 243.292969 C 275.726562 241.128906 282.582031 238.964844 288.71875 236.4375 C 293.769531 248.707031 296.296875 259.894531 296.296875 269.636719 C 296.65625 279.382812 293.769531 287.320312 288.355469 292.734375 Z M 319.390625 214.425781 C 312.535156 221.28125 302.792969 227.054688 290.523438 232.46875 C 287.996094 226.332031 284.75 219.839844 281.140625 213.34375 C 277.171875 206.484375 272.839844 199.269531 267.789062 192.414062 C 272.839844 185.195312 277.171875 178.339844 281.140625 171.480469 C 284.75 164.984375 287.996094 158.492188 290.523438 152.355469 C 302.792969 157.769531 312.535156 163.542969 319.390625 170.398438 C 326.609375 177.617188 330.21875 184.832031 330.21875 192.773438 C 330.21875 199.628906 326.609375 207.207031 319.390625 214.425781 Z M 319.390625 214.425781 " fill-opacity="1" fill-rule="nonzero"/></g><g clip-path="url(#6c61ee16cc)"><path fill="#cde2d1" d="M 223.21875 193.074219 C 223.128906 192.820312 223.03125 192.566406 222.933594 192.3125 C 217.269531 176.703125 203.441406 166.203125 201.378906 164.703125 C 202.46875 162.875 203.5625 161.050781 204.65625 159.230469 C 206.746094 155.746094 208.835938 152.265625 210.929688 148.785156 C 210.347656 148.402344 210.347656 147.417969 209.941406 146.855469 C 210.800781 145.027344 211.550781 143.347656 212.410156 141.519531 C 213.042969 140.179688 213.675781 138.835938 214.304688 137.492188 C 214.570312 136.9375 214.832031 136.371094 214.941406 135.765625 C 214.203125 135.570312 213.953125 135.316406 213.191406 135.355469 C 211.648438 134.402344 210.015625 133.597656 208.320312 132.953125 C 206.390625 136.402344 204.171875 139.550781 202.039062 142.875 C 200.671875 142.367188 199.574219 141.878906 198.132812 142.101562 C 190.53125 154.683594 183.445312 167.570312 176.363281 180.453125 C 175.496094 182.027344 174.628906 183.601562 173.765625 185.175781 C 173.070312 186.433594 172.226562 188.25 173.144531 189.359375 C 171.976562 191.789062 170.632812 194.136719 169.125 196.375 C 168.929688 196.667969 168.777344 196.988281 168.707031 197.335938 C 168.410156 198.84375 169.683594 198.949219 170.703125 199.539062 C 169.894531 200.609375 169.246094 202.246094 168.738281 203.488281 C 170.492188 204.660156 172.25 205.832031 174.007812 207.003906 C 174.183594 207.125 174.390625 207.25 174.601562 207.195312 C 174.796875 207.148438 174.921875 206.960938 175.023438 206.789062 C 175.683594 205.683594 176.269531 204.542969 176.78125 203.363281 C 177.246094 203.605469 177.664062 203.808594 178.019531 204.035156 C 178.214844 204.15625 178.46875 204.105469 178.597656 203.917969 C 180.546875 201.054688 182.078125 197.90625 183.128906 194.609375 C 183.53125 194.632812 184.277344 194.832031 184.675781 194.859375 C 186.332031 191.59375 188.027344 188.351562 189.757812 185.125 C 199.449219 186.25 204.476562 193.183594 205.65625 195.761719 C 207.15625 199.4375 207.65625 203.53125 206.964844 207.445312 C 205.804688 213.972656 201.34375 219.785156 195.394531 222.71875 C 193.964844 223.425781 193.425781 223.902344 193.292969 224.3125 C 192.679688 223.535156 191.910156 222.90625 191.058594 222.601562 C 190.660156 222.460938 190.246094 222.382812 189.828125 222.34375 C 187.976562 222.171875 186.050781 222.746094 184.667969 223.984375 C 184.238281 224.367188 183.886719 224.804688 183.605469 225.28125 C 182.054688 225.894531 179.332031 224.621094 179.847656 222.78125 C 179.953125 222.835938 180.0625 222.894531 180.171875 222.945312 C 180.59375 223.15625 181.074219 223.371094 181.519531 223.21875 C 181.960938 223.070312 182.210938 222.613281 182.417969 222.195312 C 182.773438 221.484375 183.128906 220.769531 183.484375 220.058594 C 174.328125 215.851562 165.191406 210.296875 156.777344 204.753906 C 155.90625 204.179688 155.015625 203.589844 154.003906 203.355469 C 152.988281 203.117188 151.804688 203.308594 151.128906 204.101562 C 150.5 204.835938 150.566406 206.339844 151.390625 206.855469 C 159.1875 211.71875 167.183594 216.269531 175.347656 220.492188 C 174.503906 222 173.578125 223.441406 172.757812 224.96875 C 172.679688 225.113281 172.582031 225.269531 172.421875 225.308594 C 172.292969 225.339844 172.15625 225.277344 172.039062 225.214844 C 169.203125 223.75 157.257812 216.347656 154.65625 215.160156 C 154.476562 215.078125 154.28125 215 154.089844 215.042969 C 153.914062 215.078125 153.78125 215.210938 153.65625 215.339844 C 152.820312 216.226562 152.1875 217.308594 151.820312 218.46875 C 154.996094 220.644531 158.058594 222.472656 161.414062 224.359375 C 164.058594 225.84375 166.703125 227.332031 169.347656 228.816406 C 170.359375 229.386719 171.375 229.957031 172.421875 230.464844 C 176.015625 232.207031 179.980469 233.191406 183.972656 233.335938 C 184.25 233.34375 184.691406 233.207031 185.09375 233.015625 C 185.339844 233.1875 185.59375 233.34375 185.859375 233.476562 C 187.601562 234.332031 189.710938 234.296875 191.511719 233.585938 C 191.960938 233.40625 192.398438 233.1875 192.777344 232.882812 C 193.199219 232.542969 193.539062 232.105469 193.816406 231.640625 C 194.230469 230.9375 194.503906 230.152344 194.632812 229.347656 C 194.792969 229.597656 194.976562 229.835938 195.179688 230.054688 C 195.917969 230.847656 197.003906 231.425781 198.0625 231.199219 C 204.347656 229.855469 210.457031 226.304688 214.945312 221.707031 C 219.4375 217.105469 222.542969 211.171875 223.765625 204.859375 C 224.523438 200.953125 224.554688 196.824219 223.21875 193.074219 " fill-opacity="1" fill-rule="nonzero"/></g><g clip-path="url(#0afd6ab2bb)"><path fill="#222e50" d="M 176.941406 221.480469 C 177.851562 222.050781 178.757812 222.625 179.683594 223.167969 C 179.644531 223.0625 179.804688 222.964844 179.773438 222.859375 C 179.761719 222.820312 179.722656 222.792969 179.6875 222.769531 C 178.429688 221.953125 177.039062 220.914062 175.628906 220.394531 C 175.652344 220.894531 176.570312 221.246094 176.941406 221.480469 Z M 170.703125 199.609375 C 172.617188 200.871094 174.730469 202.09375 176.640625 203.355469 C 176.152344 202.5625 171.386719 199.609375 170.703125 199.609375 Z M 194.285156 227.339844 C 193.988281 225.550781 192.632812 223.5625 190.925781 222.953125 C 190.554688 222.820312 190.164062 222.75 189.769531 222.710938 C 188.03125 222.550781 186.222656 223.089844 184.921875 224.25 C 183.625 225.414062 183.070312 227.113281 183.128906 228.855469 C 183.191406 230.675781 184.410156 232.359375 186.046875 233.164062 C 187.679688 233.96875 189.660156 233.9375 191.351562 233.265625 C 191.773438 233.097656 192.183594 232.890625 192.539062 232.605469 C 192.9375 232.289062 193.253906 231.878906 193.515625 231.441406 C 194.238281 230.21875 194.515625 228.738281 194.285156 227.339844 Z M 219.203125 243.867188 C 213.503906 244.085938 207.703125 243.28125 202.003906 243.503906 C 189.644531 243.980469 177.113281 244.375 164.753906 243.878906 C 164.546875 242.398438 165.378906 240.914062 166.554688 239.988281 C 167.730469 239.066406 169.140625 238.53125 170.636719 238.492188 C 172.5625 238.441406 174.488281 238.398438 176.414062 238.355469 C 176.800781 237.386719 177.601562 236.269531 177.96875 235.492188 C 179.335938 232.609375 180.820312 229.777344 182.410156 227.007812 C 183.066406 225.871094 183.746094 224.730469 184.648438 223.773438 C 185.550781 222.820312 186.699219 222.050781 187.992188 221.816406 C 189.316406 221.582031 190.695312 221.925781 191.890625 222.546875 C 193.085938 223.164062 194.125 224.042969 195.132812 224.933594 C 199.089844 228.433594 202.757812 232.257812 206.09375 236.355469 C 206.5625 236.933594 207.027344 237.519531 207.378906 238.171875 C 208.414062 238.179688 209.449219 238.1875 210.484375 238.203125 C 212.316406 238.222656 214.21875 238.265625 215.855469 239.082031 C 217.671875 239.988281 218.972656 241.851562 219.203125 243.867188 Z M 204.671875 169.265625 C 202.246094 165.535156 197.046875 163.898438 192.925781 165.570312 C 191.644531 166.089844 190.488281 166.878906 189.433594 167.765625 C 188.039062 168.933594 186.859375 170.71875 186.5 172.503906 C 185.972656 175.09375 185.988281 177.925781 187.300781 180.222656 C 188.742188 182.746094 191.625 184.265625 194.523438 184.417969 C 197.421875 184.566406 200.296875 183.460938 202.621094 181.722656 C 206.179688 179.054688 207.09375 172.996094 204.671875 169.265625 Z M 207.691406 130.59375 C 206.792969 131.46875 206.40625 132.40625 205.6875 133.433594 C 206.679688 133.765625 207.59375 134.292969 208.5 134.816406 C 210.707031 136.089844 212.914062 137.363281 215.121094 138.636719 C 215.554688 137.878906 215.992188 137.121094 216.425781 136.363281 C 213.539062 134.480469 210.777344 132.128906 207.691406 130.59375 Z M 194.554688 143.171875 C 200.367188 146.890625 206.402344 150.265625 212.609375 153.273438 C 213.347656 151.710938 214.082031 150.144531 214.816406 148.578125 C 209.042969 145.6875 203.167969 142.246094 197.632812 138.917969 C 196.546875 140.117188 195.398438 141.792969 194.554688 143.171875 Z M 188.925781 194.59375 C 187.941406 196.203125 187.382812 196.75 186.46875 198.398438 C 180.515625 195.339844 174.640625 192.128906 168.851562 188.773438 C 168.710938 188.207031 169.324219 187.292969 169.601562 186.78125 C 169.949219 186.148438 170.296875 185.519531 170.640625 184.886719 C 170.828125 184.542969 171.09375 184.15625 171.484375 184.175781 C 176.898438 188.207031 183.621094 190.417969 188.925781 194.59375 " fill-opacity="1" fill-rule="nonzero"/></g><path fill="#1e7b8f" d="M 191.179688 226.789062 C 190.609375 225.738281 189.308594 225.136719 188.136719 225.386719 C 187.308594 225.558594 186.574219 226.128906 186.207031 226.890625 C 185.839844 227.652344 185.921875 228.621094 186.214844 229.414062 C 186.386719 229.886719 186.632812 230.355469 187.03125 230.671875 C 187.46875 231.019531 188.050781 231.140625 188.609375 231.121094 C 189.339844 231.089844 190.0625 230.824219 190.605469 230.339844 C 191.152344 229.855469 191.507812 229.148438 191.527344 228.421875 C 191.539062 228.011719 191.375 227.152344 191.179688 226.789062 Z M 192.742188 170.648438 C 193.53125 169.75 194.679688 169.171875 195.875 169.082031 C 197.066406 168.992188 198.292969 169.394531 199.195312 170.183594 C 200.601562 171.40625 201.117188 173.402344 201.039062 175.265625 C 201.011719 175.886719 200.925781 176.515625 200.6875 177.089844 C 200.160156 178.351562 198.949219 179.222656 197.65625 179.679688 C 196.402344 180.121094 194.976562 180.21875 193.761719 179.679688 C 190.617188 178.277344 190.761719 172.902344 192.742188 170.648438 " fill-opacity="1" fill-rule="nonzero"/><path fill="#b3cad6" d="M 205.738281 238.425781 C 196.277344 238.363281 186.816406 238.417969 177.355469 238.597656 C 178.019531 238.121094 178.988281 238.03125 179.804688 238.019531 C 184.074219 237.945312 188.347656 237.875 192.617188 237.804688 C 193.773438 237.785156 194.933594 237.765625 196.085938 237.824219 C 197.570312 237.898438 199.054688 238.101562 200.539062 238.035156 C 202.359375 237.953125 204.050781 237.738281 205.738281 238.425781 Z M 182.441406 215.265625 C 182.199219 215.667969 181.953125 216.070312 181.707031 216.472656 C 181.636719 216.59375 181.550781 216.726562 181.414062 216.761719 C 181.277344 216.796875 181.140625 216.730469 181.019531 216.664062 C 175.292969 213.625 169.570312 210.582031 163.847656 207.539062 C 160.933594 205.992188 158.019531 204.441406 155.175781 202.769531 C 155.554688 202.292969 155.78125 201.917969 156.183594 201.460938 C 156.28125 201.347656 156.386719 201.230469 156.53125 201.195312 C 156.71875 201.148438 156.910156 201.25 157.078125 201.34375 C 158.664062 202.269531 160.296875 203.121094 161.964844 203.898438 C 162.886719 204.324219 163.816406 204.730469 164.703125 205.222656 C 165.691406 205.773438 166.617188 206.433594 167.574219 207.042969 C 172.261719 210.035156 177.71875 212.328125 182.441406 215.265625 " fill-opacity="1" fill-rule="nonzero"/></svg>